<svg xmlns="http://www.w3.org/2000/svg" xmlns:xlink="http://www.w3.org/1999/xlink" xmlns:sketch="http://www.bohemiancoding.com/sketch/ns" viewBox="0 0 55 68.75" version="1.1" x="0px" y="0px"><title>Shuffle</title><desc>Created with Sketch.</desc><g stroke="none" stroke-width="1" fill="none" fill-rule="evenodd" sketch:type="MSPage"><g sketch:type="MSArtboardGroup" fill="#000000"><path d="M33.6386862,36.2204437 C30.019815,35.9876267 26.5142857,30.6249999 26.5142857,30.6249999 L27.8219194,28.4943824 C27.8219194,28.4943824 31.1210882,32.864109 33.5830462,33.2072972 C33.4753974,32.3535737 33.3387564,31.6743862 33.3387564,31.6743862 C33.1608748,30.5931612 33.7579472,30.1922989 34.6879419,30.7929777 L39.4470594,33.8668672 C40.3809691,34.4700746 40.3770541,35.4414387 39.4470594,36.0421175 L34.6879419,39.1160069 C33.7540322,39.7192144 33.1538963,39.3241475 33.3387564,38.2392483 C33.3387564,38.2392483 33.530537,37.2902209 33.6386862,36.2204437 Z M33.6383224,19.7759614 C29.4314416,19.9237313 27.5153556,23.9314463 25.3999999,27.2500002 C23.4867713,30.2522502 21.1854,32.823625 18.4312571,32.823625 L16.6725429,32.823625 C15.8520571,32.823625 15.1868286,33.49525 15.1868286,34.323625 C15.1868286,35.152 15.8520571,35.823625 16.6725429,35.823625 L18.4312571,35.823625 C22.8070571,35.823625 25.1017435,31.7563745 27.2571435,28.3749995 C29.1018277,25.4810717 30.984809,22.9602175 33.5844563,22.7814964 C33.4765947,23.640475 33.3387564,24.3256138 33.3387564,24.3256138 C33.1608748,25.4068388 33.7579472,25.8077011 34.6879419,25.2070223 L39.4470594,22.1331328 C40.3809691,21.5299254 40.3770541,20.5585613 39.4470594,19.9578825 L34.6879419,16.8839931 C33.7540322,16.2807856 33.1538963,16.6758525 33.3387564,17.7607517 C33.3387564,17.7607517 33.5301075,18.707654 33.6383224,19.7759614 L33.6383224,19.7759614 Z M27.5,50.5 C39.9264069,50.5 50,40.4264069 50,28 C50,15.5735931 39.9264069,5.5 27.5,5.5 C15.0735931,5.5 5,15.5735931 5,28 C5,40.4264069 15.0735931,50.5 27.5,50.5 Z M24.6571428,27.25 C23.0056391,25.0699701 20.6242773,23.176375 18.4312571,23.176375 L16.6725429,23.176375 C15.8520571,23.176375 15.1868286,22.50475 15.1868286,21.676375 C15.1868286,20.848 15.8520571,20.176375 16.6725429,20.176375 L18.4312571,20.176375 C21.8545139,20.176375 24.0040921,22.6656045 25.8097214,25.3683093 L24.6571428,27.25 Z" sketch:type="MSShapeGroup"/></g></g></svg>
